<svg xmlns="http://www.w3.org/2000/svg" viewBox="0 0 64 64" role="img" aria-label="Jobberman Ghana">
  <rect width="64" height="64" rx="14" fill="#ffffff"/>
  <circle cx="32" cy="32" r="25" fill="#0757b8"/>
  <path fill="#ffffff" d="M27.7 13.5c1.9-1.1 4.2-.4 5.2 1.5.9 1.8.3 4-1.4 5.1l-1 .6 4.6 7.3 4.4-1.9c.8-.4 1.8 0 2.2.9.4.8 0 1.8-.9 2.2l-5.8 2.5c-.8.3-1.7 0-2.1-.7l-2.2-3.5-1.9 10.8 6.1 9.7c.6.9.3 2.1-.6 2.7-.9.6-2.1.3-2.7-.6l-5.1-8.1-4.5 8.5c-.5 1-1.7 1.3-2.7.8-.9-.5-1.3-1.7-.8-2.6l5.1-9.7 2.2-12.4-2.2 1.3-2.9 5.4c-.4.8-1.5 1.1-2.3.7-.8-.5-1.1-1.5-.7-2.3l3.1-5.9c.1-.3.4-.6.7-.8l12.1-7.5Z"/>
  <path fill="#ffffff" d="M39.5 14.5h5.7c1.5 0 2.8 1.2 2.8 2.8v33.2c0 .8-.7 1.5-1.5 1.5h-7c-.8 0-1.5-.7-1.5-1.5V16c0-.8.7-1.5 1.5-1.5Z" opacity=".96"/>
  <path fill="#0757b8" d="M41.5 18h3v2.8h-3z"/>
</svg>
